<svg width="32" height="32" viewBox="0 0 32 32" fill="none" xmlns="http://www.w3.org/2000/svg">
<path d="M14.296 16.6066C14.296 15.7057 15.0202 14.9751 15.9129 14.9751C16.8055 14.9751 17.5297 15.7057 17.5297 16.6066C17.5297 17.5075 16.8055 18.2381 15.9129 18.2381C15.0202 18.2381 14.296 17.5075 14.296 16.6066Z" fill="#F4F4F4"/>
<path d="M2.20001 28H16.0737L20.2752 20.6538L18.9877 18.4025L14.7852 25.7497L6.05964 25.7507L15.9129 8.52292L25.7651 25.7507H19.9362L18.6497 28H29.6247L15.9129 4.02432L2.20001 28Z" fill="#F4F4F4"/>
<path d="M18.4744 4L19.7619 6.25125H25.9375L22.8492 11.6507L24.1367 13.902L29.8 4H18.4744Z" fill="#F4F4F4"/>
</svg>
