<svg width="101" height="32" viewBox="0 0 101 32" fill="none" xmlns="http://www.w3.org/2000/svg">
<path d="M24.8254 4.31474H22.0796V27.7246H24.8254V4.31474Z" fill="#F4F4F4"/>
<path d="M4 19.882H7.05895L11.7657 9.95085L16.4724 19.882H19.5313L11.7657 4.03938L4 19.882Z" fill="#F4F4F4"/>
<path d="M71.7717 4.31474H68.9477V21.3393H71.7717V4.31474Z" fill="#F4F4F4"/>
<path d="M58.7104 19.8426H55.8472V28H71.2611L72.3591 25.4787H58.7104V19.8426Z" fill="#F4F4F4"/>
<path d="M31.8455 7.03444H38.2782V4.55248H28.9823V19.8033H38.1608L39.2587 17.241H31.8455V7.03444Z" fill="#F4F4F4"/>
<path d="M93.6951 4.31474V10.9754H91.3409V4.39343H88.636V27.6459H91.3409V13.6164H93.6951V28H96.4V4.31474H93.6951Z" fill="#F4F4F4"/>
<path d="M86.0469 6.9951L87.1057 4.55248H76.007V6.9951H79.7707V10.1476L75.3006 19.8033H78.0854L81.1835 13.1426L84.2816 19.8033H87.1057L82.6339 10.1476V6.9951H86.0469Z" fill="#F4F4F4"/>
<path d="M46.2788 10.9754H43.9247V4.39343H41.2197V27.6459H43.9247V13.6164H46.2788V28H48.9838V4.31474H46.2788V10.9754Z" fill="#F4F4F4"/>
<path d="M55.1033 10.6606C55.1033 8.05901 56.1621 6.4836 58.6337 6.4836C60.908 6.4836 62.2816 7.94262 62.2816 10.6606C62.2816 13.3787 60.9487 14.8377 58.6337 14.8377C56.3187 14.8377 55.1033 13.3393 55.1033 10.6606ZM65.1432 10.6606C65.0649 6.40492 62.2408 4 58.6321 4C54.7493 4 52.1602 6.75901 52.1602 10.6606C52.1602 15.0738 55.2974 17.3213 58.6321 17.3213C62.2017 17.3213 65.1432 14.7984 65.1432 10.6606Z" fill="#F4F4F4"/>
</svg>
